<svg xmlns="http://www.w3.org/2000/svg" xmlns:xlink="http://www.w3.org/1999/xlink" width="500" zoomAndPan="magnify" viewBox="0 0 375 374.999991" height="500" preserveAspectRatio="xMidYMid meet" version="1.0"><defs><clipPath id="1fa912b60e"><path d="M 187.5 0 C 83.945312 0 0 83.945312 0 187.5 C 0 291.054688 83.945312 375 187.5 375 C 291.054688 375 375 291.054688 375 187.5 C 375 83.945312 291.054688 0 187.5 0 " clip-rule="nonzero"/></clipPath><clipPath id="280dc730a6"><path d="M 42.96875 111.484375 L 206 111.484375 L 206 263.734375 L 42.96875 263.734375 Z M 42.96875 111.484375 " clip-rule="nonzero"/></clipPath><clipPath id="2ebd0b3b43"><path d="M 148 111.484375 L 345 111.484375 L 345 263.734375 L 148 263.734375 Z M 148 111.484375 " clip-rule="nonzero"/></clipPath></defs><g clip-path="url(#1fa912b60e)"><rect x="-37.5" width="450" fill="#0096d6" y="-37.499999" height="449.999989" fill-opacity="1"/></g><g clip-path="url(#280dc730a6)"><path fill="#fffbf8" d="M 205.636719 111.84375 C 204.328125 113.652344 203.457031 114.960938 202.464844 116.207031 C 194.066406 127.183594 185.480469 138.097656 177.207031 149.257812 C 174.285156 153.1875 171.175781 154.871094 166.074219 154.808594 C 142.371094 154.433594 118.609375 154.621094 94.785156 154.621094 C 90.492188 154.621094 90.492188 154.621094 90.492188 158.800781 C 90.492188 162.664062 90.492188 166.53125 90.492188 170.710938 C 126.011719 170.710938 161.222656 170.710938 196.925781 170.710938 C 196.367188 171.769531 196.117188 172.457031 195.683594 173.015625 C 186.351562 185.113281 176.898438 197.085938 167.628906 209.246094 C 166.320312 210.929688 164.953125 211.554688 162.839844 211.554688 C 140.007812 211.492188 117.179688 211.492188 94.351562 211.429688 C 90.492188 211.429688 90.492188 211.429688 90.492188 215.296875 C 90.492188 230.199219 90.429688 245.105469 90.492188 260.007812 C 90.492188 262.691406 89.933594 263.625 87.070312 263.625 C 73.449219 263.5 59.765625 263.5 46.140625 263.625 C 43.589844 263.625 42.96875 262.8125 42.96875 260.382812 C 43.09375 211.804688 43.09375 163.289062 43.03125 114.773438 C 43.03125 112.15625 43.902344 111.59375 46.328125 111.59375 C 98.332031 111.65625 150.335938 111.65625 202.339844 111.65625 C 203.210938 111.65625 204.019531 111.71875 205.636719 111.84375 Z M 205.636719 111.84375 " fill-opacity="1" fill-rule="nonzero"/></g><g clip-path="url(#2ebd0b3b43)"><path fill="#fffbf8" d="M 205.386719 188.855469 C 205.386719 189.855469 205.386719 190.851562 205.386719 191.847656 C 205.386719 201.703125 205.449219 211.617188 205.324219 221.46875 C 205.324219 223.589844 206.007812 224.339844 208.0625 224.339844 C 225.230469 224.152344 242.335938 224.277344 259.507812 223.839844 C 268.648438 223.589844 277.109375 220.410156 284.574219 214.921875 C 292.847656 208.8125 295.523438 200.207031 295.210938 190.414062 C 294.652344 172.828125 281.714844 161.480469 267.21875 157.425781 C 260.8125 155.617188 253.96875 154.933594 247.3125 154.808594 C 231.203125 154.433594 215.089844 154.683594 198.980469 154.683594 C 197.796875 154.683594 196.554688 154.558594 194.6875 154.496094 C 195.933594 152.5 196.804688 150.878906 197.921875 149.445312 C 207.066406 137.535156 216.210938 125.6875 225.417969 113.839844 C 226.164062 112.839844 227.65625 111.78125 228.777344 111.84375 C 242.585938 112.09375 256.519531 111.59375 270.207031 113.027344 C 291.355469 115.210938 310.453125 123.003906 325.570312 138.59375 C 340.375 153.871094 346.71875 172.457031 344.292969 193.535156 C 340.871094 223.339844 323.640625 242.859375 297.078125 254.894531 C 283.953125 260.820312 270.082031 263.5625 255.648438 263.5625 C 221.0625 263.625 186.476562 263.5625 151.890625 263.5625 C 150.957031 263.5625 150.023438 263.5 148.28125 263.375 C 167.316406 238.121094 185.980469 213.363281 204.640625 188.605469 C 204.890625 188.667969 205.136719 188.792969 205.386719 188.855469 Z M 205.386719 188.855469 " fill-opacity="1" fill-rule="nonzero"/></g></svg>